<svg width="32" height="32" viewBox="0 0 32 32" fill="none" xmlns="http://www.w3.org/2000/svg">
	<path d="M0.5 15.5C0.5 23.7843 7.21573 30.5 15.5 30.5C23.7843 30.5 30.5 23.7843 30.5 15.5C30.5 7.21573 23.7843 0.5 15.5 0.5C7.21573 0.5 0.5 7.21573 0.5 15.5Z" fill="#FFFFFF" stroke="#278CDD" stroke-linecap="round"/>
	<path d="M13.7093 19.3817C13.7093 18.2496 13.85 17.3472 14.1314 16.6747C14.4128 16.0022 14.9671 15.2659 15.7942 14.4657C16.6298 13.657 17.1585 13.0824 17.3802 12.7419C17.7213 12.2227 17.8919 11.6608 17.8919 11.0565C17.8919 10.2563 17.6915 9.64763 17.2907 9.23051C16.8984 8.80488 16.3186 8.59207 15.5512 8.59207C14.8178 8.59207 14.2252 8.80063 13.7733 9.21774C13.3298 9.62634 13.1081 10.1839 13.1081 10.8905H10C10.0171 9.38374 10.5287 8.19198 11.5349 7.31519C12.5496 6.4384 13.8884 6 15.5512 6C17.2651 6 18.5996 6.43414 19.5547 7.30242C20.5182 8.1707 21 9.38374 21 10.9415C21 12.3291 20.3519 13.6953 19.0558 15.0403L17.4826 16.5854C16.9198 17.2238 16.6298 18.1559 16.6128 19.3817H13.7093ZM13.4919 23.3528C13.4919 22.8506 13.6496 22.4462 13.9651 22.1398C14.2806 21.8248 14.707 21.6673 15.2442 21.6673C15.7899 21.6673 16.2205 21.8291 16.536 22.1526C16.8516 22.4675 17.0093 22.8676 17.0093 23.3528C17.0093 23.821 16.8558 24.2126 16.5488 24.5276C16.2419 24.8425 15.807 25 15.2442 25C14.6814 25 14.2465 24.8425 13.9395 24.5276C13.6411 24.2126 13.4919 23.821 13.4919 23.3528Z" fill="#278CDD"/>
</svg>
